<!DOCTYPE svg PUBLIC "-//W3C//DTD SVG 20010904//EN"
 "http://www.w3.org/TR/2001/REC-SVG-20010904/DTD/svg10.dtd">
<svg version="1.0" xmlns="http://www.w3.org/2000/svg"
 width="512.000000pt" height="512.000000pt" viewBox="0 0 512.000000 512.000000"
 preserveAspectRatio="xMidYMid meet">
<metadata>
Created by potrace 1.16, written by Peter Selinger 2001-2019
</metadata>
<g transform="translate(0.000000,512.000000) scale(0.100000,-0.100000)"
fill="#FFFFFF" stroke="none">
<path d="M2425 4994 c-514 -39 -945 -199 -1344 -497 -123 -92 -366 -335 -458
-458 -260 -348 -415 -721 -479 -1156 -20 -135 -23 -479 -5 -613 59 -441 220
-837 484 -1189 92 -123 335 -366 458 -458 354 -265 760 -430 1194 -484 137
-17 463 -15 600 4 429 60 815 219 1164 480 123 92 366 335 458 458 261 349
420 734 480 1164 21 148 21 484 0 630 -61 432 -219 816 -480 1164 -93 124
-336 367 -458 458 -349 261 -745 424 -1159 478 -111 15 -371 25 -455 19z m342
-974 c165 -38 305 -114 431 -234 127 -121 217 -272 264 -443 31 -113 31 -344
0 -458 -27 -99 -89 -229 -147 -310 -63 -89 -199 -213 -290 -264 -543 -309
-1206 -27 -1371 584 -15 55 -19 102 -18 225 1 138 4 165 27 243 51 167 133
302 254 418 231 223 540 310 850 239z m134 -1975 c432 -59 858 -243 1204 -518
93 -74 120 -113 110 -156 -13 -60 -256 -319 -405 -433 -420 -317 -939 -468
-1441 -418 -524 53 -1008 302 -1350 694 -140 160 -139 181 4 298 244 198 495
335 794 434 185 61 338 91 608 118 77 8 364 -4 476 -19z"/>
</g>
</svg>